<svg xmlns="http://www.w3.org/2000/svg" x="0px" y="0px" width="100" height="100" viewBox="0 0 100 100">
<path d="M53,91c-20.953,0-38-17.047-38-38s17.047-38,38-38s38,17.047,38,38S73.953,91,53,91z" opacity=".35"></path><circle cx="50" cy="50" r="37" fill="#565963"></circle><linearGradient id="0dHPKLhskEIGM5Grn6s_Wa_Jiy764c1VwET_gr1" x1="26.769" x2="75.063" y1="11.187" y2="91.874" gradientUnits="userSpaceOnUse"><stop offset=".004" stop-color="#ffe8c7"></stop><stop offset=".115" stop-color="#fee5c1"></stop><stop offset=".257" stop-color="#fbddb1"></stop><stop offset=".416" stop-color="#f7d097"></stop><stop offset=".586" stop-color="#f1be73"></stop><stop offset=".735" stop-color="#ebab4d"></stop></linearGradient><path fill="url(#0dHPKLhskEIGM5Grn6s_Wa_Jiy764c1VwET_gr1)" d="M48.03,81c0-1.1,0.899-2,2-2l0,0c1.109,0,2,0.89,2,2l0,0c0,1.1-0.891,2-2,2l0,0	C48.93,83,48.03,82.11,48.03,81z M33.54,78.6c-0.96-0.55-1.29-1.77-0.74-2.73l0,0c0.55-0.95,1.78-1.28,2.73-0.73l0,0	c0.96,0.55,1.289,1.77,0.739,2.73l0,0c-0.37,0.64-1.05,1-1.739,1l0,0C34.189,78.87,33.85,78.79,33.54,78.6z M63.79,77.84	c-0.561-0.95-0.23-2.17,0.729-2.73l0,0c0.95-0.55,2.181-0.23,2.73,0.73l0,0c0.55,0.95,0.229,2.18-0.73,2.73l0,0	c-0.31,0.18-0.66,0.27-1,0.27l0,0C64.83,78.84,64.16,78.48,63.79,77.84z M21.439,66.55c-0.55-0.95-0.229-2.18,0.73-2.73l0,0	c0.95-0.56,2.18-0.23,2.729,0.72l0,0c0.561,0.96,0.24,2.18-0.72,2.74l0,0c-0.32,0.18-0.66,0.27-1,0.27l0,0	C22.49,67.55,21.819,67.19,21.439,66.55z M75.859,67.22c-0.96-0.55-1.29-1.77-0.739-2.73l0,0c0.56-0.95,1.779-1.28,2.739-0.73l0,0	c0.95,0.55,1.28,1.78,0.73,2.73l0,0c-0.37,0.65-1.04,1-1.74,1l0,0C76.52,67.49,76.17,67.41,75.859,67.22z M17,50.07	c0-1.11,0.89-2,2-2.01l0,0c1.1,0,2,0.9,2,2l0,0c0,1.11-0.891,2-2,2l0,0C17.899,52.07,17,51.18,17,50.07z M79,50L79,50	c0-0.01,0-0.02,0-0.03l0,0c0-0.03,0-0.06,0-0.09l0,0c-0.01-1.11,0.89-2.01,1.99-2.01l0,0c1.109-0.01,2,0.89,2.01,1.99l0,0	c0,0.02,0,0.05,0,0.07l0,0c0,0.02,0,0.05,0,0.07l0,0c0,1.1-0.9,2-2,2l0,0C79.89,52,79,51.1,79,50z M17,50.07L17,50.07L17,50.07	L17,50.07L17,50.07L17,50.07z M22.109,36.3c-0.949-0.55-1.29-1.78-0.729-2.73l0,0c0.55-0.96,1.77-1.29,2.729-0.74l0,0	c0.95,0.55,1.28,1.77,0.73,2.73l0,0c-0.37,0.64-1.04,1-1.73,1l0,0C22.77,36.56,22.43,36.48,22.109,36.3z M75.06,35.4	c-0.55-0.95-0.229-2.18,0.721-2.73l0,0c0.96-0.56,2.18-0.24,2.739,0.72l0,0c0.55,0.95,0.23,2.18-0.72,2.73l0,0	c-0.32,0.19-0.66,0.28-1.01,0.27l0,0C76.109,36.39,75.439,36.04,75.06,35.4z M32.689,24.2c-0.55-0.96-0.229-2.18,0.73-2.74l0,0	c0.95-0.55,2.17-0.23,2.729,0.72l0,0c0.561,0.96,0.23,2.18-0.72,2.74l0,0c-0.32,0.18-0.66,0.27-1.01,0.27l0,0	C33.729,25.19,33.06,24.84,32.689,24.2z M64.41,24.83L64.41,24.83c-0.95-0.55-1.29-1.77-0.74-2.73l0,0	c0.55-0.96,1.77-1.29,2.729-0.74l0,0l0,0l0,0c0.96,0.55,1.29,1.77,0.74,2.73l0,0c-0.37,0.64-1.04,1-1.729,1l0,0	C65.069,25.09,64.729,25.01,64.41,24.83z M47.899,19.01c0-1.11,0.891-2.01,2-2.01l0,0c0,0,0,0-0.01,0l0,0	c1.11,0,2.01,0.89,2.01,1.99l0,0c0,1.11-0.89,2.01-1.989,2.01l0,0c-0.011,0-0.011,0-0.011,0l0,0C48.8,21,47.899,20.11,47.899,19.01z M50,88c-20.953,0-38-17.047-38-38s17.047-38,38-38s38,17.047,38,38S70.953,88,50,88z M50,14c-19.851,0-36,16.149-36,36	s16.149,36,36,36s36-16.149,36-36S69.851,14,50,14z M63.713,62.299l-10.28-10.28C53.785,51.424,54,50.74,54,50	c0-1.858-1.279-3.411-3-3.858V27c0-0.552-0.447-1-1-1s-1,0.448-1,1v19.142c-1.721,0.447-3,2-3,3.858c0,2.206,1.794,4,4,4	c0.74,0,1.424-0.215,2.019-0.567l10.28,10.28c0.195,0.195,0.451,0.293,0.707,0.293s0.512-0.098,0.707-0.293	C64.104,63.323,64.104,62.69,63.713,62.299z"></path>
</svg>